<svg version="1.1" viewBox="0.0 0.0 2880.0 480.0" fill="none" stroke="none" stroke-linecap="square" stroke-miterlimit="10" xmlns:xlink="http://www.w3.org/1999/xlink" xmlns="http://www.w3.org/2000/svg"><clipPath id="p.0"><path d="m0 0l2880.0 0l0 480.0l-2880.0 0l0 -480.0z" clip-rule="nonzero"/></clipPath><g clip-path="url(#p.0)"><path fill="currentColor" fill-opacity="0.0" d="m0 0l2880.0 0l0 480.0l-2880.0 0z" fill-rule="evenodd"/><path fill="#1a1a1a" d="m497.22427 111.22736c25.259735 0 46.18924 13.547134 46.18924 44.95092c0 45.280823 -25.857727 76.375305 -67.44867 76.375305l-35.09561 0l14.7846985 -121.326225zm-286.724 -93.015396c-83.47062 0 -150.30072 52.662678 -150.30072 136.13116c0 72.065796 56.973637 101.01584 108.40045 130.56386c41.281662 24.331207 59.138763 32.970856 59.138763 53.89984c0 22.496094 -19.712921 41.589905 -54.808517 41.589905c-28.64148 0 -61.9225 -17.258667 -82.54271 -52.064697l-70.54173 61.9209c35.42552 55.116425 96.09018 78.519775 153.08444 78.519775c78.52176 0 138.58841 -37.878357 154.58972 -106.56253l0 0l-12.310272 101.01584l97.01807 0l17.547821 -143.513l41.261017 0c112.73068 0 175.25119 -70.51933 175.25119 -174.60751c0 -70.53993 -36.04413 -121.34684 -123.80377 -121.34684l-153.37311 0l-37.28134 304.57336c0 -1.5258484 0 -2.763031 0 -4.3095093c0 -70.51933 -56.973633 -91.46893 -120.71071 -129.34729c-35.734818 -20.928986 -46.82849 -33.878143 -47.73578 -51.42549c-0.61860657 -20.949608 17.547806 -37.56907 43.426163 -37.56907c19.692307 0 44.024155 6.7632523 68.04669 38.806236l70.54175 -58.827957c-30.187988 -44.97153 -83.47061 -67.44699 -134.89742 -67.44699z" fill-rule="evenodd"/><path fill="#1a1a1a" d="m1094.3687 111.22735c24.641113 0 46.519165 13.547127 46.519165 44.950905c0 44.043655 -26.806274 76.37532 -68.37659 76.37532l-38.18872 0l14.78479 -121.326225zm496.7821 -67.44699l-52.664062 155.51367l33.569702 0l-28.332153 231.6003l-30.80664 -209.72281l-63.73706 0l141.97021 -177.39114zm-853.4087 -20.021715l-198.0365 439.46735l104.09082 0l123.20575 -292.88202l34.188354 185.72151l-87.78027 0l107.472534 107.16049l184.79834 0l17.54779 -143.513l37.57007 0l60.06665 143.513l197.10852 0l14.475464 -122.87271l41.570312 -48.97174l71.13977 171.84445l191.87097 0l30.497314 -245.7454l0.9279785 -0.61857605l58.829346 164.75128l60.046143 0l93.0177 -158.91592l1.2166748 0.30929565l-29.260132 240.21933l185.10767 0l123.18506 -292.88202l34.188232 185.72151l-87.4707 0l107.18384 107.16049l102.87402 0l-90.563965 -439.46735l-95.16211 0l-175.84924 390.51624l47.73584 -390.51624l-97.32739 0l-132.42297 238.98215l-1.855835 0l-80.996216 -238.98215l-202.34607 0l-136.73267 180.15419l-2.165039 -0.6185913l21.87793 -179.5356l-98.25525 0l-52.04541 424.37375l-66.83008 -146.27606c58.210815 -28.022156 88.996826 -83.77777 88.996826 -156.75084c0 -70.53994 -36.332886 -121.34684 -124.42236 -121.34684l-156.44556 0l-48.35437 394.20715l-80.996216 -394.20715z" fill-rule="evenodd"/><path fill="#1a1a1a" d="m2289.2737 23.758642l-11.072998 88.685265l102.853516 0l-43.426025 350.78207l99.183105 0l43.116943 -350.78207l95.16235 0l-43.116943 352.01926l273.1765 0l11.072998 -88.68527l-176.15845 0l11.09375 -87.46869l129.96924 0l9.856445 -85.61293l-129.65991 0l11.072998 -90.252365l164.4668 0l11.09375 -88.685265z" fill-rule="evenodd"/></g></svg>